# xmcd CD database file
#
# Track frame offsets:
#	150
#	20860
#	48275
#	72049
#	102130
#	127274
#	157742
#	197397
#	226983
#	251221
#
# Disc length: 3786 seconds
#
# Revision: 0
# Processed by: cddbd v1.5.2PL0 Copyright (c) Steve Scherf et al.
# Submitted via: CDex 1.51
#
DISCID=800ec80a
DTITLE=Trio AAB - Stranger Things Happen at C
DYEAR=2003
DGENRE=Jazz
TTITLE0=Ant's Milk
TTITLE1=Station
TTITLE2=Oddity
TTITLE3=Yet
TTITLE4=Sundance
TTITLE5=Stuff Swing
TTITLE6=The Clock
TTITLE7=Fin
TTITLE8=Curioser and Curioser
TTITLE9=Two
EXTD=YEAR: 2003
EXTT0=
EXTT1=
EXTT2=
EXTT3=
EXTT4=
EXTT5=
EXTT6=
EXTT7=
EXTT8=
EXTT9=
PLAYORDER=
